<svg width="178" height="58" viewBox="0 0 178 58" fill="none" xmlns="http://www.w3.org/2000/svg">
<path d="M33.4765 31.8676C32.9256 31.8701 32.3944 31.6635 31.9899 31.2896C31.656 30.8173 31.4999 30.2421 31.5495 29.6658V14.4734C31.6621 12.5199 31.3624 10.5645 30.67 8.73428C29.9776 6.90404 28.9079 5.23986 27.5304 3.84981C24.5084 1.17238 20.5505 -0.202668 16.5191 0.024206C14.0193 0.0231628 11.5363 0.43226 9.16904 1.23519C7.40566 1.85269 5.70875 2.64564 4.10384 3.60211C3.55598 3.9154 3.14837 4.42591 2.9642 5.02946C2.78003 5.633 2.83319 6.28406 3.11282 6.84975C3.25056 7.15553 3.44964 7.42977 3.69772 7.65549C3.9458 7.88121 4.2376 8.0536 4.55504 8.16197C4.87247 8.27034 5.20879 8.31238 5.54314 8.2855C5.87749 8.25862 6.20276 8.16338 6.4988 8.00569C7.56934 7.37845 8.68234 6.82667 9.82971 6.35434C11.7446 5.57314 13.7903 5.16222 15.8584 5.14336C18.4335 4.99251 20.9675 5.8403 22.9332 7.51028C23.7846 8.34978 24.4482 9.3604 24.8801 10.4753C25.3119 11.5903 25.5021 12.7841 25.4382 13.978V16.7303C23.8853 16.1882 22.2799 15.81 20.6483 15.6019C18.9523 15.3575 17.2416 15.2288 15.5281 15.2165C12.7978 15.0615 10.0626 15.4161 7.46229 16.2624C5.30185 17.0329 3.39647 18.3854 1.95664 20.1706C0.64607 21.8713 -0.0435638 23.9689 0.00213333 26.1154C-0.00371992 28.0652 0.550443 29.9757 1.59877 31.6199C2.67601 33.4046 4.22998 34.8534 6.08587 35.8033C8.0865 36.7947 10.2948 37.2948 12.5275 37.2619C15.1379 37.2405 17.7156 36.6783 20.0977 35.6106C22.5227 34.5962 24.6461 32.9756 26.2641 30.9043V33.1886C26.3958 34.1296 26.8194 35.0056 27.4753 35.6932C27.9075 36.0998 28.4193 36.4124 28.9784 36.6114C29.5374 36.8103 30.1317 36.8913 30.7236 36.8491C31.0811 36.8724 31.4398 36.8724 31.7973 36.8491L33.1186 36.684C33.485 36.644 33.8453 36.5608 34.1922 36.4363C34.7605 36.1726 35.2044 35.6991 35.431 35.1152C35.4837 34.8425 35.4837 34.5622 35.431 34.2895C35.453 33.7178 35.2671 33.1575 34.9078 32.7123C34.5485 32.267 34.04 31.9669 33.4765 31.8676ZM25.4382 25.0695C25.4031 25.6596 25.2336 26.2338 24.9427 26.7484C24.6066 27.458 24.1709 28.1159 23.6489 28.7025C22.1335 30.2832 20.2379 31.4488 18.1432 32.0877C17.4449 32.3208 16.7259 32.4867 15.996 32.5831C13.7796 32.9531 11.5029 32.6361 9.47185 31.6749C8.32349 31.0215 7.37252 30.0708 6.71902 28.9227C6.12734 27.9109 5.80509 26.7643 5.78306 25.5925C5.74439 24.5902 5.98039 23.5964 6.46555 22.7184C6.95072 21.8404 7.66661 21.1117 8.53589 20.6109C10.9063 19.3438 13.5928 18.7894 16.2713 19.0146C17.8326 19.0124 19.3905 19.1598 20.9236 19.455L25.4382 20.3082V25.0695Z" fill="#2C447D"/>
<path d="M69.098 27.0512C68.504 26.8975 67.8781 26.9198 67.2965 27.1153C66.715 27.3107 66.2027 27.6709 65.8221 28.1521C65.5186 28.534 65.1773 28.8844 64.8036 29.1979C63.777 30.0766 62.6026 30.7661 61.335 31.2346C60.0208 31.754 58.6189 32.0156 57.2058 32.0052C55.0556 32.0128 52.9503 31.3909 51.1496 30.2162C49.2979 29.0051 47.7903 27.3366 46.7726 25.3723C45.6785 23.2651 45.1207 20.9208 45.1484 18.5468C45.0983 16.1736 45.6474 13.826 46.745 11.7212C47.7304 9.78839 49.2247 8.16114 51.067 7.0149C52.8124 5.95202 54.8058 5.36478 56.8488 5.31167C58.8918 5.25855 60.9131 5.7414 62.7114 6.71216C63.7705 7.3315 64.7042 8.14365 65.4642 9.1066C65.8339 9.55031 66.3258 9.87559 66.8789 10.042C67.432 10.2083 68.0218 10.2085 68.5749 10.0424C69.0483 9.89812 69.4787 9.63906 69.8277 9.28825C70.1767 8.93744 70.4335 8.50578 70.5752 8.03171C70.7169 7.55764 70.7391 7.05589 70.6399 6.57116C70.5406 6.08642 70.323 5.63375 70.0064 5.25347C69.0179 4.17598 67.8772 3.24876 66.6204 2.50124C63.7966 0.83358 60.5677 -0.0234887 57.2884 0.0242266C53.9086 -0.0638518 50.5715 0.794081 47.6535 2.50124C44.9329 4.11815 42.6982 6.4379 41.1843 9.21669C39.6515 12.0758 38.8656 15.2755 38.8995 18.5192C38.8669 23.4069 40.7206 28.119 44.0748 31.6749C45.7201 33.4254 47.7061 34.821 49.9108 35.7757C52.2616 36.7678 54.7919 37.2644 57.3434 37.2344C59.6518 37.2578 61.9455 36.8662 64.1154 36.0785C66.0904 35.3292 67.9033 34.208 69.4558 32.7758C69.8412 32.4455 70.1991 32.0602 70.557 31.7024C70.8495 31.3236 71.0462 30.8798 71.1304 30.4087C71.2146 29.9376 71.1838 29.4531 71.0405 28.9965C70.8973 28.5398 70.6459 28.1245 70.3077 27.7858C69.9695 27.4471 69.5545 27.1951 69.098 27.0512Z" fill="#2C447D"/>
<path d="M108.876 11.7215C108.084 9.53699 106.889 7.5205 105.353 5.77665C103.758 3.97869 101.796 2.5429 99.5995 1.56573C97.1123 0.50544 94.4298 -0.0196895 91.7264 0.0244809C88.5194 -0.0654375 85.3491 0.724598 82.5595 2.30884C81.024 3.22739 79.648 4.3893 78.4853 5.74913C78.132 5.99646 77.8418 6.32332 77.638 6.70337C77.4342 7.08343 77.3226 7.50603 77.3122 7.93711C77.3018 8.3682 77.3928 8.7957 77.578 9.18515C77.7631 9.57461 78.0372 9.91512 78.3781 10.1792C78.7191 10.4433 79.1173 10.6237 79.5407 10.7057C79.9642 10.7877 80.401 10.769 80.8159 10.6513C81.2308 10.5336 81.6122 10.32 81.9294 10.0278C82.2466 9.73565 82.4907 9.37304 82.6421 8.96924C83.5008 7.82677 84.6004 6.88715 85.8629 6.21701C87.5728 5.36136 89.4564 4.9094 91.3685 4.89594C93.5536 4.8427 95.7096 5.40543 97.5899 6.51975C99.3441 7.56332 100.818 9.01798 101.884 10.7582C102.92 12.4285 103.569 14.3092 103.784 16.2627H90.3224C89.8124 16.3214 89.3419 16.5657 89.0003 16.9488C88.6587 17.332 88.4699 17.8273 88.4699 18.3406C88.4699 18.8539 88.6587 19.3492 89.0003 19.7324C89.3419 20.1155 89.8124 20.3598 90.3224 20.4185H103.866C103.694 22.5434 103.004 24.5937 101.857 26.3909C100.738 28.1559 99.2316 29.6431 97.4523 30.7394C95.6371 31.814 93.5604 32.3664 91.4511 32.3357C89.3766 32.3403 87.3333 31.8296 85.505 30.8495C84.2101 30.1816 83.0741 29.2429 82.1741 28.0973C81.9935 27.719 81.7289 27.3871 81.4004 27.1266C81.072 26.8662 80.6884 26.6842 80.2789 26.5945C79.8694 26.5048 79.4449 26.5098 79.0376 26.6091C78.6303 26.7084 78.2511 26.8994 77.9289 27.1675C77.6067 27.4356 77.35 27.7737 77.1783 28.1561C77.0067 28.5385 76.9247 28.955 76.9385 29.3738C76.9524 29.7927 77.0617 30.2029 77.2582 30.5731C77.4547 30.9433 77.7332 31.2638 78.0724 31.51C78.6246 32.1676 79.2426 32.767 79.9168 33.299C81.5682 34.6045 83.43 35.619 85.4224 36.2989C87.4904 36.9867 89.6572 37.3307 91.8365 37.3173C94.4535 37.357 97.0472 36.8215 99.4343 35.7485C101.617 34.7229 103.573 33.2727 105.188 31.4825C106.773 29.7347 108.007 27.6975 108.821 25.4827C109.655 23.2554 110.083 20.8974 110.088 18.5195C110.1 16.1987 109.69 13.8951 108.876 11.7215Z" fill="#2C447D"/>
<path d="M145.654 0.574439C145.076 0.581862 144.507 0.722246 143.991 0.984732C143.476 1.24722 143.027 1.62477 142.681 2.08817L123.411 28.4546V3.68446C123.452 3.26077 123.403 2.83333 123.269 2.42952C123.134 2.02572 122.917 1.65447 122.63 1.33958C122.344 1.02469 121.995 0.773094 121.606 0.600934C121.216 0.428774 120.795 0.339844 120.37 0.339844C119.944 0.339844 119.523 0.428774 119.134 0.600934C118.744 0.773094 118.395 1.02469 118.109 1.33958C117.822 1.65447 117.605 2.02572 117.471 2.42952C117.336 2.83333 117.287 3.26077 117.328 3.68446V32.7756C117.328 33.7975 117.734 34.7776 118.457 35.5002C119.179 36.2228 120.16 36.6287 121.182 36.6287C121.791 36.6298 122.392 36.4885 122.937 36.2161C123.482 35.9437 123.955 35.5478 124.32 35.0599L143.122 9.38159V33.5737C143.122 34.384 143.444 35.161 144.017 35.7339C144.59 36.3068 145.367 36.6287 146.177 36.6287C146.988 36.6287 147.765 36.3068 148.338 35.7339C148.911 35.161 149.233 34.384 149.233 33.5737V4.26243C149.233 3.30309 148.86 2.38134 148.192 1.69279C147.524 1.00424 146.613 0.603076 145.654 0.574439Z" fill="#2C447D"/>
<path d="M57.398 13.978C56.4888 13.978 55.5999 14.2476 54.8439 14.7526C54.0879 15.2577 53.4987 15.9755 53.1507 16.8154C52.8028 17.6552 52.7117 18.5794 52.8891 19.4709C53.0665 20.3625 53.5043 21.1815 54.1473 21.8243C54.7902 22.4671 55.6094 22.9048 56.5011 23.0822C57.3929 23.2595 58.3172 23.1685 59.1573 22.8206C59.9973 22.4727 60.7153 21.8836 61.2204 21.1278C61.7256 20.3719 61.9952 19.4833 61.9952 18.5743C61.9952 17.3553 61.5109 16.1862 60.6487 15.3242C59.7866 14.4623 58.6173 13.978 57.398 13.978Z" fill="#2C447D"/>
<path d="M167.677 21.299C166.308 21.2917 164.951 21.5546 163.684 22.0724C162.417 22.5903 161.265 23.353 160.293 24.3168C159.322 25.2807 158.55 26.4268 158.022 27.6894C157.494 28.952 157.22 30.3064 157.216 31.6749C157.214 33.8444 157.909 35.9573 159.198 37.7023L150.417 46.537C149.302 47.6585 147.787 48.2919 146.205 48.2984H128.725C128.101 46.9995 127.054 45.9511 125.756 45.3248C124.458 44.6986 122.986 44.5317 121.581 44.8516C120.175 45.1715 118.921 45.9591 118.022 47.0853C117.123 48.2116 116.633 49.6098 116.633 51.0506C116.633 52.4915 117.123 53.8896 118.022 55.0159C118.921 56.1422 120.175 56.9298 121.581 57.2497C122.986 57.5695 124.458 57.4027 125.756 56.7764C127.054 56.1502 128.101 55.1017 128.725 53.8029H148.407C149.204 53.8106 149.995 53.6587 150.733 53.3562C151.47 53.0537 152.14 52.6067 152.702 52.0414L163.493 41.2527C164.795 41.8196 166.201 42.1101 167.622 42.1059C170.374 42.1059 173.014 41.0127 174.96 39.0668C176.907 37.121 178 34.4818 178 31.7299C178 28.9781 176.907 26.3389 174.96 24.3931C173.014 22.4472 170.374 21.354 167.622 21.354L167.677 21.299ZM167.677 38.0601C166.413 38.0655 165.175 37.6957 164.121 36.9974C163.068 36.2991 162.245 35.3038 161.757 34.1375C161.269 32.9713 161.139 31.6866 161.382 30.4462C161.626 29.2058 162.232 28.0655 163.124 27.1697C164.016 26.274 165.154 25.6631 166.393 25.4145C167.633 25.1659 168.919 25.2907 170.087 25.7732C171.256 26.2556 172.255 27.074 172.958 28.1246C173.661 29.1753 174.036 30.4109 174.036 31.6749C174.036 33.3636 173.367 34.9835 172.175 36.1802C170.983 37.3769 169.366 38.0528 167.677 38.0601Z" fill="#2C447D"/>
</svg>
