<svg width="169" height="46" viewBox="0 0 169 46" fill="none" xmlns="http://www.w3.org/2000/svg">
<path d="M73.478 28.367L82.0289 0.280273H103.936L95.3856 28.367H92.2025L100.004 3.15136H84.4006L76.63 28.367H73.478Z" fill="#00609C"/>
<path d="M99.5996 28.367L108.15 0.280273H117.638C120.353 0.280273 122.506 0.873214 124.035 2.0591C125.564 3.24498 126.344 4.83656 126.344 6.83384C126.344 8.7687 125.689 10.3603 124.41 11.6398C123.099 12.9193 121.414 13.7931 119.323 14.1988C122.631 15.2286 124.285 17.1635 124.285 20.0346C124.285 22.5 123.224 24.4972 121.102 26.0576C118.979 27.618 116.108 28.3982 112.457 28.3982H99.5996V28.367ZM103.875 25.5895L112.863 25.5271C115.391 25.5271 117.419 25.0278 118.886 24.0291C120.353 23.0305 121.102 21.6574 121.102 19.9097C121.102 18.5054 120.509 17.4444 119.323 16.7266C118.137 15.9776 116.576 15.6343 114.642 15.6343L107.089 15.6031L103.875 25.5895ZM107.745 12.7945H114.891C117.419 12.7945 119.416 12.2951 120.883 11.2653C122.381 10.2354 123.099 8.89353 123.099 7.20832C123.099 5.89761 122.599 4.89897 121.601 4.1812C120.602 3.46343 119.198 3.12015 117.357 3.12015H110.46L107.745 12.7945Z" fill="#00609C"/>
<path d="M126 28.367L133.553 0.280273H136.736L132.273 16.9763L152.433 0.280273H156.927L141.823 12.6384L148.782 28.367H145.224L139.264 14.4797L131.119 21.1893L129.184 28.367H126Z" fill="#00609C"/>
<path d="M45.2964 0.03125L33.0631 37.7298C32.0956 40.6945 29.3182 42.723 26.1974 42.723H12.7158C6.53674 42.723 2.13649 36.6688 4.04015 30.8018L14.0265 0.03125H10.5937L0.57612 30.8642C-1.85806 38.3228 3.72807 45.9998 11.5611 45.9998H26.7592C30.9722 45.9998 34.6859 43.2848 35.9966 39.2902L48.7604 0.03125H45.2964Z" fill="#00609C"/>
<path d="M38.4621 0.03125L27.6331 33.392C27.165 34.7963 25.8543 35.7638 24.3876 35.7638H13.9955C11.6861 35.7638 10.0321 33.4856 10.7499 31.3011L20.8923 0.03125H17.4595L7.34831 31.1451C6.0688 35.0148 8.97109 39.0093 13.0593 39.0093H24.8245C27.4459 39.0093 29.7552 37.3241 30.5354 34.8588L41.8637 0.03125H38.4621Z" fill="#00609C"/>
<path d="M70.8876 0L58.6543 37.6986C57.6869 40.6633 54.9094 42.6918 51.7887 42.6918H40.0235L38.9624 45.9686H53.2242C56.9067 45.9686 60.1835 43.5968 61.3381 40.0703L74.3516 0H70.8876Z" fill="#64BEE6"/>
<path d="M64.0519 0L53.2229 33.3607C52.7548 34.7651 51.4441 35.7325 49.9773 35.7325H42.3003L41.2393 39.0093H50.4454C53.0669 39.0093 55.3762 37.3241 56.1564 34.8587L67.4847 0.0312076H64.0519V0Z" fill="#64BEE6"/>
<path d="M167.099 38.6979H70.0439L71.0738 35.2339H168.659L167.099 38.6979Z" fill="#64BEE6"/>
<path d="M129.215 45.9996H67.8296L68.8594 42.5044H130.744L129.215 45.9996Z" fill="#64BEE6"/>
</svg>
