<svg width="47" height="46" viewBox="0 0 47 46" fill="none" xmlns="http://www.w3.org/2000/svg">
<path d="M23.1408 46C35.8265 46 46.1102 35.7025 46.1102 23C46.1102 10.2975 35.8265 0 23.1408 0C10.4551 0 0.171387 10.2975 0.171387 23C0.171387 35.7025 10.4551 46 23.1408 46Z" fill="#66BFE7"/>
<path d="M31.8664 14.6163C31.136 14.6092 30.4127 15.0191 29.7529 15.2911C29.0331 15.5879 28.3169 15.8882 27.5971 16.1885C24.665 17.4145 21.7259 18.6298 18.7868 19.8452C15.9324 21.0252 12.9616 22.0604 10.1742 23.3959C9.70492 23.622 8.96045 24.0283 9.13686 24.6748C9.20037 24.908 9.37326 25.0564 9.58849 25.1624C9.74726 25.2648 11.3244 25.7948 12.3053 26.1163C12.5629 26.2082 12.824 26.293 13.0815 26.3707C13.0851 26.3707 13.0886 26.3742 13.0886 26.3742C13.6743 26.5438 14.26 26.6604 14.8245 26.6498C15.6396 26.6639 16.3699 26.3495 17.058 25.9255C17.2414 25.7913 17.4249 25.6605 17.6049 25.5369C17.7601 25.4344 17.9153 25.3284 18.0706 25.2224C19.5454 24.2297 21.0203 23.2334 22.4951 22.2406C23.2714 21.7177 24.037 21.1736 24.8309 20.679C25.226 20.4317 26.8032 19.4883 26.5209 20.5942C26.4433 20.898 26.2528 21.1807 26.0199 21.4456C25.7306 21.7742 25.3742 22.071 25.0779 22.343C24.8203 22.5939 24.5627 22.8412 24.3052 23.092C24.291 23.1062 24.2734 23.1238 24.2593 23.138C23.8006 23.5867 23.3384 24.0318 22.8726 24.4734C21.8918 25.4132 20.8968 26.3354 19.9053 27.261C19.616 27.5966 19.4361 27.9747 19.6372 28.4622C19.87 29.0275 20.5616 29.4162 21.0309 29.7659C22.2587 30.6774 23.5466 31.5112 24.8203 32.3592C25.9705 33.1258 27.2054 34.1787 28.6168 34.3942C30.2398 34.638 30.4127 32.9527 30.6067 31.7585C30.8643 30.1581 31.1184 28.5612 31.3724 26.9607C31.8664 23.8481 32.3921 20.739 32.8155 17.6158C32.879 17.1636 33.0166 16.5559 33.0272 16.0048C33.0131 15.277 32.7626 14.6728 31.8664 14.6163Z" fill="#FEFEFE"/>
</svg>
