<svg width="46" height="46" viewBox="0 0 46 46" fill="none" xmlns="http://www.w3.org/2000/svg">
<circle cx="23" cy="23" r="23" fill="#00609C"/>
<path fill-rule="evenodd" clip-rule="evenodd" d="M37.2862 16.2079C37.5043 15.4974 37.2862 15 36.2686 15H32.8766C32.0043 15 31.6167 15.45 31.3986 15.9474C31.3986 15.9474 29.6783 20.0684 27.2312 22.7211C26.4317 23.5026 26.0924 23.7395 25.6563 23.7395C25.4383 23.7395 25.1233 23.5026 25.1233 22.7921V16.2079C25.1233 15.3553 24.881 15 24.1541 15H18.8237C18.2907 15 17.9515 15.4026 17.9515 15.7579C17.9515 16.5632 19.163 16.7526 19.3083 18.9789V23.8579C19.3083 24.9237 19.1145 25.1132 18.6784 25.1132C17.5396 25.1132 14.729 20.9921 13.0815 16.2553C12.7423 15.3789 12.4273 15 11.5551 15H8.16299C7.19383 15 7 15.45 7 15.9474C7 16.8237 8.13876 21.1816 12.3546 26.9368C15.1652 30.8684 19.1145 33 22.7004 33C24.8568 33 25.1233 32.5263 25.1233 31.7211V28.7368C25.1233 27.7895 25.3171 27.6 26.0198 27.6C26.5286 27.6 27.3766 27.8368 29.3876 29.7316C31.6893 31.9816 32.077 33 33.3611 33H36.7532C37.7224 33 38.2069 32.5263 37.9162 31.6026C37.6012 30.6789 36.5109 29.3289 35.0572 27.7184C34.2576 26.7947 33.0704 25.8237 32.7312 25.3263C32.2224 24.6868 32.3678 24.4026 32.7312 23.8579C32.7312 23.8342 36.8744 18.15 37.2862 16.2079Z" fill="white"/>
</svg>
