<svg width="47" height="47" viewBox="0 0 47 47" fill="none" xmlns="http://www.w3.org/2000/svg">
<path d="M0 47L4.042 34.8748C1.99102 31.4252 0.810345 27.3994 0.810345 23.0948C0.810345 10.34 11.1503 0 23.9052 0C36.66 0 47 10.34 47 23.0948C47 35.8497 36.66 46.1897 23.9052 46.1897C20.0244 46.1897 16.3698 45.2278 13.16 43.5374L0 47Z" fill="#2CB742"/>
<path d="M38.6395 30.7808C37.5731 28.7655 33.6405 26.4608 33.6405 26.4608C32.7508 25.9536 31.677 25.8968 31.1698 26.8012C31.1698 26.8012 29.8919 28.3335 29.5669 28.554C28.0824 29.5596 26.7072 29.5207 25.3191 28.1326L22.0931 24.9066L18.8671 21.6806C17.479 20.2925 17.4401 18.9173 18.4457 17.4328C18.6662 17.1078 20.1985 15.8299 20.1985 15.8299C21.1029 15.3218 21.0461 14.2489 20.5389 13.3592C20.5389 13.3592 18.2342 9.42658 16.2189 8.36017C15.3616 7.90637 14.3089 8.0652 13.6234 8.75075L12.1988 10.1753C7.6795 14.6946 9.90471 19.7966 14.424 24.3159L18.5543 28.4462L22.6847 32.5765C27.2039 37.0958 32.3059 39.321 36.8252 34.8017L38.2498 33.3771C38.9353 32.69 39.0933 31.6373 38.6395 30.7808Z" fill="white"/>
</svg>
